<svg xmlns="http://www.w3.org/2000/svg" width="140" height="140" fill="none"><g fill="#181818" clip-path="url(#a)"><path d="M59.87 13.173a.827.827 0 0 1-.632-.155.824.824 0 0 1-.339-.56.806.806 0 0 1 .16-.628.82.82 0 0 1 .556-.338.82.82 0 0 1 .632.159c.19.138.303.322.338.552a.812.812 0 0 1-.054.444.881.881 0 0 1-.258.349.812.812 0 0 1-.404.177ZM36.093 18.295l1.873 3.405-1.116.615-3.155-5.735 1.072-.59.513.933.071-.039a1.872 1.872 0 0 1 .217-1.073c.183-.34.49-.629.92-.866.39-.215.778-.321 1.162-.319.382 0 .743.117 1.081.349.339.232.638.584.898 1.057l2.007 3.648-1.116.614-1.933-3.513c-.229-.416-.516-.68-.86-.796-.347-.117-.71-.071-1.088.137a1.596 1.596 0 0 0-.598.548 1.38 1.38 0 0 0-.203.754c.003.277.088.567.255.871ZM21.447 37.902l-6.218-2.807.858-.999 4.48 2.162.042-.049-2.805-4.11.858-.999 4.461 2.15.042-.048-2.798-4.086.858-.999 3.71 5.726-.847.985-4.45-2.073-.063.075 2.716 4.09-.844.982ZM14.733 53.39c-.21.576-.527 1.03-.948 1.363-.422.333-.913.53-1.475.594-.562.064-1.16-.021-1.795-.254-.637-.233-1.151-.556-1.542-.969a2.84 2.84 0 0 1-.746-1.408c-.106-.526-.054-1.077.157-1.654.21-.576.527-1.03.948-1.363.422-.333.915-.53 1.479-.593.564-.062 1.165.024 1.803.257.635.233 1.146.555 1.534.967.388.411.635.88.742 1.406.107.526.054 1.078-.157 1.654Zm-1.002-.372c.136-.374.151-.72.043-1.037a1.849 1.849 0 0 0-.588-.833 3.338 3.338 0 0 0-1.019-.578 3.326 3.326 0 0 0-1.146-.216 1.875 1.875 0 0 0-.996.253c-.29.172-.503.444-.64.818-.137.376-.152.725-.042 1.046.11.32.308.6.595.84.285.238.624.429 1.016.572.395.145.777.219 1.149.222.372 0 .701-.086.989-.26.288-.175.5-.451.639-.827ZM12.259 71.548a2.537 2.537 0 0 1-.466 1.396c-.29.4-.691.706-1.204.92-.515.211-1.126.302-1.832.271-.707-.03-1.307-.174-1.799-.431-.492-.26-.863-.603-1.112-1.029a2.549 2.549 0 0 1-.34-1.426c.018-.406.1-.73.247-.97.144-.245.309-.431.494-.56.184-.131.346-.232.486-.303l.003-.076-3.24-.14.055-1.273 8.72.375-.054 1.243-1.018-.043-.004.106c.136.083.29.2.462.353.173.15.32.352.443.607.123.256.176.582.159.98Zm-1.074-.328c.016-.366-.067-.68-.25-.94a1.793 1.793 0 0 0-.788-.615 3.356 3.356 0 0 0-1.2-.252 3.323 3.323 0 0 0-1.2.145c-.347.116-.62.296-.822.54-.2.245-.31.553-.325.925-.017.383.069.706.257.97.187.264.45.47.788.614a3.32 3.32 0 0 0 1.154.242 3.35 3.35 0 0 0 1.188-.145c.354-.116.64-.297.855-.543.213-.25.327-.564.343-.941ZM6.904 91.025l8.314-2.654.387 1.214-8.314 2.654-.387-1.214ZM9.997 98.713l7.92-3.667.535 1.157-7.92 3.666-.535-1.156ZM26.08 107.549c.37.49.58 1.002.632 1.537a2.849 2.849 0 0 1-.3 1.562c-.251.506-.646.963-1.186 1.371-.542.409-1.091.666-1.65.771a2.831 2.831 0 0 1-1.587-.136c-.5-.195-.934-.538-1.304-1.028s-.58-1.002-.632-1.536a2.844 2.844 0 0 1 .304-1.565c.253-.508.65-.967 1.192-1.376.54-.408 1.087-.663 1.643-.766a2.848 2.848 0 0 1 1.584.138c.5.196.935.539 1.305 1.028Zm-.855.642c-.24-.318-.523-.517-.848-.599a1.844 1.844 0 0 0-1.019.043c-.355.109-.701.29-1.037.543-.333.252-.6.534-.802.847a1.875 1.875 0 0 0-.327.974c-.013.337.1.664.34.982.241.319.527.52.856.603.327.08.67.065 1.028-.046.354-.11.698-.292 1.031-.544.336-.253.605-.535.809-.845.201-.313.308-.637.318-.972.008-.338-.108-.667-.35-.986ZM36.683 117.424l-4.097 5.104-.96-.771.65-.811-.053-.043c-.313.2-.65.285-1.012.253a1.806 1.806 0 0 1-.996-.406 5.679 5.679 0 0 1-.403-.363l.763-.95c.031.043.092.112.183.207.09.098.185.187.287.269.235.189.484.307.748.355a1.424 1.424 0 0 0 1.394-.525l2.503-3.117.993.798ZM48.316 123.595c.573.268 1.006.63 1.299 1.084.289.455.436.965.442 1.529.005.564-.13 1.143-.41 1.738-.28.602-.643 1.08-1.085 1.435a2.871 2.871 0 0 1-1.465.636c-.533.067-1.078-.03-1.637-.292a3.072 3.072 0 0 1-1.086-.815 2.384 2.384 0 0 1-.528-1.094 2.321 2.321 0 0 1 .1-1.229l1.123.526c-.069.307-.039.613.088.917.125.303.371.541.74.713.32.151.642.198.964.142a1.82 1.82 0 0 0 .895-.456c.278-.246.516-.58.714-1.002.202-.433.311-.836.327-1.212a1.833 1.833 0 0 0-.214-.989 1.58 1.58 0 0 0-.732-.659 1.583 1.583 0 0 0-.65-.158 1.341 1.341 0 0 0-.616.139 1.467 1.467 0 0 0-.515.427l-1.123-.526c.22-.364.505-.648.854-.851.35-.203.74-.309 1.17-.318.428-.01.876.095 1.345.315ZM60.467 132.114l1.173-.016c.024.153.077.304.16.453.079.148.199.278.359.391.16.112.37.19.632.232.356.058.666.026.93-.095.264-.118.416-.302.457-.552a.651.651 0 0 0-.155-.56c-.139-.158-.38-.308-.722-.45l-.988-.402c-.572-.234-.98-.518-1.226-.851-.245-.334-.33-.729-.256-1.186.063-.387.231-.714.505-.98.27-.264.618-.449 1.044-.556.423-.107.896-.118 1.417-.033.724.118 1.289.368 1.696.751.406.386.615.873.626 1.462l-1.246-.013c-.024-.329-.14-.594-.35-.795-.21-.198-.504-.328-.882-.39-.412-.067-.756-.035-1.03.096-.275.134-.433.326-.474.575a.669.669 0 0 0 .145.546c.126.162.338.303.635.423l1.054.417c.581.236.991.527 1.232.874.237.347.318.75.243 1.21a1.654 1.654 0 0 1-.482.949c-.26.251-.59.426-.992.525a3.273 3.273 0 0 1-1.33.034c-.7-.114-1.224-.354-1.576-.722a2.144 2.144 0 0 1-.599-1.337ZM81.788 126.643a.826.826 0 0 1 .635.138c.194.136.312.32.353.552a.806.806 0 0 1-.142.631.818.818 0 0 1-.548.353.818.818 0 0 1-.635-.142.803.803 0 0 1-.353-.543.809.809 0 0 1 .042-.444.877.877 0 0 1 .248-.356.818.818 0 0 1 .4-.189ZM105.419 120.887l-1.964-3.354 1.099-.644 3.307 5.648-1.055.619-.538-.92-.07.041c.045.376-.017.735-.188 1.079-.173.345-.472.642-.896.89-.385.226-.769.342-1.153.35a1.881 1.881 0 0 1-1.091-.319c-.344-.223-.653-.567-.926-1.033l-2.103-3.593 1.099-.644 2.026 3.46c.24.41.534.667.882.773.35.107.711.052 1.083-.166.255-.149.45-.337.584-.564a1.38 1.38 0 0 0 .182-.759c-.01-.277-.103-.565-.278-.864ZM119.535 100.895l6.291 2.64-.832 1.021-4.536-2.041-.041.05 2.915 4.034-.831 1.021-4.518-2.031-.04.05 2.906 4.01-.831 1.021-3.862-5.624.821-1.008 4.503 1.953.062-.076-2.825-4.015.818-1.005ZM125.832 85.233c.196-.582.5-1.044.912-1.388a2.842 2.842 0 0 1 1.458-.633c.56-.079 1.16-.01 1.801.205.644.217 1.166.526 1.568.928.401.402.662.864.783 1.388.121.523.083 1.075-.112 1.657-.196.582-.5 1.044-.912 1.388-.412.344-.9.555-1.462.632-.563.078-1.166.008-1.809-.209-.641-.215-1.161-.523-1.56-.924a2.852 2.852 0 0 1-.779-1.386c-.121-.524-.083-1.076.112-1.658Zm1.013.345c-.127.377-.133.723-.017 1.038.116.315.32.587.611.817.291.233.635.416 1.034.55.396.133.779.195 1.151.185.374-.006.704-.099.989-.279.285-.18.491-.458.618-.835.127-.38.132-.729.015-1.047a1.91 1.91 0 0 0-.618-.824 3.388 3.388 0 0 0-1.031-.544 3.404 3.404 0 0 0-1.154-.191 1.88 1.88 0 0 0-.982.286c-.283.183-.489.465-.616.844ZM127.82 67.016c.009-.529.151-.998.428-1.408.279-.408.672-.725 1.179-.953.509-.225 1.118-.331 1.825-.32.707.012 1.31.14 1.809.383.499.247.879.58 1.139 1 .26.418.386.89.378 1.416-.007.406-.081.732-.221.977a1.742 1.742 0 0 1-.478.571 3.986 3.986 0 0 1-.478.317l-.001.076 3.242.053-.021 1.274-8.726-.142.02-1.244 1.019.016.002-.106a3.327 3.327 0 0 1-.472-.34 1.835 1.835 0 0 1-.459-.596c-.13-.252-.191-.577-.185-.974Zm1.082.298c-.006.367.086.678.275.934.192.259.46.456.804.593.344.139.747.212 1.207.22.454.007.853-.052 1.196-.177a1.75 1.75 0 0 0 .806-.562c.195-.25.295-.56.301-.933.006-.383-.088-.705-.283-.963a1.822 1.822 0 0 0-.804-.593 3.324 3.324 0 0 0-1.16-.21 3.354 3.354 0 0 0-1.184.176 1.881 1.881 0 0 0-.84.566c-.206.255-.312.572-.318.95ZM132.652 47.401l-8.24 2.876-.42-1.203 8.24-2.876.42 1.203ZM129.354 39.8l-7.818 3.877-.566-1.142 7.819-3.877.565 1.141ZM113.041 31.397c-.383-.48-.607-.986-.673-1.52a2.855 2.855 0 0 1 .258-1.569c.238-.513.621-.98 1.149-1.402.531-.424 1.074-.695 1.629-.815a2.836 2.836 0 0 1 1.59.093c.505.182.949.513 1.331.993.383.48.607.986.673 1.519a2.843 2.843 0 0 1-.262 1.572c-.239.515-.624.984-1.155 1.408-.528.422-1.069.692-1.622.81a2.844 2.844 0 0 1-1.587-.097c-.505-.182-.949-.513-1.331-.992Zm.838-.664c.248.31.536.503.863.576.328.073.667.05 1.018-.071a3.351 3.351 0 0 0 1.022-.57c.326-.261.586-.55.779-.869.198-.317.298-.645.301-.982.004-.337-.118-.661-.366-.972-.25-.313-.541-.506-.872-.58a1.903 1.903 0 0 0-1.027.073c-.351.12-.69.31-1.016.571-.328.263-.59.552-.785.867a1.87 1.87 0 0 0-.292.98c0 .338.125.663.375.977ZM102.178 21.81l3.959-5.213.981.746-.629.828.054.04a1.582 1.582 0 0 1 1.005-.28c.365.022.701.149 1.006.38a4.662 4.662 0 0 1 .413.352l-.737.97a2.222 2.222 0 0 0-.189-.202 2.588 2.588 0 0 0-.294-.26 1.663 1.663 0 0 0-.757-.336 1.425 1.425 0 0 0-1.38.563l-2.418 3.183-1.014-.771ZM90.384 15.952c-.58-.253-1.023-.603-1.328-1.049a2.85 2.85 0 0 1-.482-1.516c-.02-.564.1-1.147.362-1.748.266-.61.615-1.098 1.047-1.464A2.87 2.87 0 0 1 91.43 9.5c.531-.081 1.08.001 1.645.248.455.198.825.46 1.108.785.284.322.47.682.556 1.08.09.399.068.809-.067 1.23l-1.136-.495c.06-.309.022-.613-.113-.914-.133-.3-.386-.531-.758-.693a1.583 1.583 0 0 0-.968-.116c-.316.064-.61.224-.883.48-.271.253-.5.594-.686 1.02-.191.438-.29.845-.295 1.22-.006.376.075.704.24.984.17.281.42.494.75.638.221.097.44.144.654.142.219-.004.423-.056.612-.156.192-.1.36-.246.504-.441l1.136.496c-.21.37-.488.66-.832.874-.343.212-.73.329-1.16.349-.428.02-.879-.072-1.353-.279ZM78.01 7.761l-1.173.048a1.369 1.369 0 0 0-.171-.449 1.137 1.137 0 0 0-.37-.381 1.512 1.512 0 0 0-.638-.215c-.357-.049-.666-.009-.927.12-.261.125-.408.313-.442.563a.651.651 0 0 0 .17.556c.142.154.387.298.733.43l.998.377c.579.218.995.49 1.249.818.254.326.35.72.288 1.178-.053.389-.212.72-.479.993-.263.271-.606.466-1.029.584-.42.118-.892.141-1.415.07-.727-.098-1.299-.333-1.716-.704-.416-.375-.638-.857-.664-1.445l1.245-.02c.033.328.157.59.371.785.215.192.513.314.893.366.413.056.756.014 1.027-.124.271-.14.424-.337.458-.587a.669.669 0 0 0-.16-.542c-.13-.158-.345-.293-.645-.406l-1.066-.389c-.587-.22-1.004-.5-1.254-.84-.246-.34-.338-.741-.276-1.203.052-.383.204-.703.457-.962a2.12 2.12 0 0 1 .977-.551c.4-.112.843-.136 1.33-.07.701.095 1.232.322 1.594.68.362.356.573.796.634 1.32Z"/></g><defs><clipPath id="a"><path fill="#fff" d="M0 0h140v140H0z"/></clipPath></defs></svg>