<svg xmlns="http://www.w3.org/2000/svg" width="21" height="20" fill="none"><path fill="#F9B811" d="M9.737 1.279c.344-.817 1.515-.817 1.859 0l2.028 4.819c.145.344.473.58.85.609l5.265.417c.892.07 1.254 1.17.574 1.746l-4.012 3.395a.987.987 0 0 0-.324.986l1.226 5.077c.207.86-.74 1.54-1.503 1.079l-4.509-2.72a1.016 1.016 0 0 0-1.049 0l-4.509 2.72c-.763.46-1.71-.22-1.503-1.08l1.226-5.076a.987.987 0 0 0-.324-.986L1.02 8.87c-.68-.575-.318-1.675.574-1.746l5.266-.417c.376-.03.704-.265.849-.61L9.737 1.28Z"/></svg>