<svg xmlns="http://www.w3.org/2000/svg" width="91" height="28" fill="none"><g clip-path="url(#a)"><path fill="#909090" d="M47.644 7.035c0 1.01-.813 1.822-1.822 1.822A1.818 1.818 0 0 1 44 7.035a1.8 1.8 0 0 1 1.822-1.821c1.037.028 1.822.84 1.822 1.821Zm-7.512 3.672v.449s-.868-1.122-2.718-1.122c-3.055 0-5.438 2.326-5.438 5.55 0 3.195 2.355 5.549 5.438 5.549 1.877 0 2.718-1.15 2.718-1.15v.477c0 .224.169.392.393.392h2.27V10.313h-2.27a.403.403 0 0 0-.393.394Zm0 6.754c-.42.617-1.261 1.15-2.27 1.15-1.794 0-3.167-1.121-3.167-3.027 0-1.906 1.373-3.028 3.167-3.028.981 0 1.878.561 2.27 1.15v3.755Zm4.344-7.147h2.69v10.539h-2.69V10.314Zm40.192-.28c-1.85 0-2.719 1.121-2.719 1.121V5.242h-2.69v15.611h2.27a.4.4 0 0 0 .392-.393v-.476s.87 1.15 2.719 1.15c3.055 0 5.437-2.354 5.437-5.55 0-3.195-2.382-5.55-5.409-5.55Zm-.448 8.548c-1.038 0-1.85-.532-2.27-1.149v-3.755c.42-.561 1.317-1.15 2.27-1.15 1.793 0 3.167 1.121 3.167 3.027 0 1.906-1.373 3.027-3.167 3.027Zm-6.362-3.98v6.279h-2.691v-5.97c0-1.737-.56-2.438-2.073-2.438-.813 0-1.654.42-2.188 1.037v7.343h-2.69V10.314h2.13c.224 0 .392.197.392.393v.449c.785-.814 1.822-1.122 2.859-1.122 1.177 0 2.159.337 2.943 1.01.953.784 1.318 1.793 1.318 3.559Zm-16.173-4.568c-1.85 0-2.718 1.121-2.718 1.121V5.242h-2.69v15.611h2.27a.401.401 0 0 0 .392-.393v-.476s.869 1.15 2.718 1.15c3.056 0 5.438-2.354 5.438-5.55.028-3.195-2.355-5.55-5.41-5.55Zm-.448 8.548c-1.037 0-1.85-.532-2.27-1.149v-3.755c.42-.561 1.317-1.15 2.27-1.15 1.794 0 3.167 1.121 3.167 3.027 0 1.906-1.373 3.027-3.167 3.027Zm-7.287-8.548c.812 0 1.233.14 1.233.14v2.494s-2.242-.756-3.643.841v7.372h-2.691V10.314h2.27a.4.4 0 0 1 .392.393v.448c.505-.588 1.598-1.121 2.439-1.121ZM26.007 19.9c-.14-.336-.28-.7-.42-1.01-.225-.503-.45-.98-.645-1.429l-.028-.028a292.266 292.266 0 0 0-6.195-12.668l-.084-.168c-.23-.436-.454-.876-.672-1.318-.28-.504-.56-1.036-1.009-1.541C16.057.617 14.768 0 13.394 0c-1.4 0-2.662.617-3.586 1.681-.421.505-.73 1.037-1.01 1.542-.218.442-.442.881-.672 1.317l-.084.169c-2.158 4.204-4.26 8.464-6.194 12.668l-.028.056c-.196.449-.421.925-.645 1.43-.14.308-.28.644-.42 1.008C.39 20.908.278 21.89.418 22.9a5.957 5.957 0 0 0 3.644 4.652 5.753 5.753 0 0 0 2.27.449 7.404 7.404 0 0 0 3.532-1.009c1.15-.645 2.242-1.57 3.475-2.915 1.233 1.346 2.355 2.27 3.476 2.915A7.406 7.406 0 0 0 20.346 28c.785 0 1.57-.14 2.27-.449 1.963-.785 3.336-2.578 3.644-4.652.223-.981.11-1.962-.253-3Zm-12.64 1.457c-1.514-1.906-2.495-3.7-2.831-5.212-.14-.645-.168-1.206-.084-1.71.056-.449.224-.841.448-1.178.533-.756 1.43-1.233 2.467-1.233 1.037 0 1.962.449 2.467 1.233.224.337.392.73.448 1.178.084.505.056 1.093-.084 1.71-.337 1.485-1.318 3.279-2.832 5.212Zm11.182 1.318a4.165 4.165 0 0 1-2.55 3.28 4.245 4.245 0 0 1-2.13.28 5.52 5.52 0 0 1-2.13-.73c-1.01-.56-2.018-1.429-3.195-2.718 1.85-2.27 2.97-4.345 3.39-6.194a7.01 7.01 0 0 0 .14-2.383 4.543 4.543 0 0 0-.756-1.906c-.869-1.261-2.327-1.99-3.952-1.99s-3.082.757-3.951 1.99a4.548 4.548 0 0 0-.757 1.906 5.822 5.822 0 0 0 .14 2.383c.42 1.85 1.57 3.951 3.39 6.222-1.148 1.289-2.185 2.158-3.194 2.719-.73.42-1.43.645-2.13.728a4.484 4.484 0 0 1-2.13-.28 4.165 4.165 0 0 1-2.55-3.28 4.637 4.637 0 0 1 .252-2.185c.084-.28.224-.56.364-.897.196-.449.42-.925.645-1.402l.028-.055A305.603 305.603 0 0 1 9.639 5.578l.084-.168c.224-.42.448-.869.672-1.29.225-.448.477-.869.785-1.233.589-.672 1.373-1.037 2.242-1.037.87 0 1.654.365 2.243 1.037a6.2 6.2 0 0 1 .785 1.233c.224.421.448.87.672 1.29l.084.168a371.146 371.146 0 0 1 6.138 12.612v.028c.225.45.421.954.645 1.403.14.335.28.615.364.896.224.728.308 1.43.196 2.158Z"/></g><defs><clipPath id="a"><path fill="#fff" d="M.347 0H90.09v28H.347z"/></clipPath></defs></svg>