<svg xmlns="http://www.w3.org/2000/svg" width="154" height="40" fill="none"><path fill="#909090" d="M76.827 17.982h-.054l-1.605 4.534h3.247l-1.588-4.534Zm2.876 8.112-.791-2.23h-4.196l-.787 2.23H72.13l3.767-9.919h2l3.707 9.92h-1.9Zm15.222-10.321h1.753v1.66h-1.753v-1.66Zm0 2.762h1.713v7.56H94.92l.005-7.56Zm-12.663-2.762h1.758v1.66h-1.758v-1.66Zm0 2.762h1.717v7.56h-1.717v-7.56Zm10.77-2.75H91.32v10.31h1.713v-10.31Zm-5.46 6.625v3.684h-1.727v-5.613c0-.542-.058-1.571-.08-1.94h1.386c.147 0 .197.061.197.206v.94h.053c.134-.33.622-1.309 2.044-1.309.479 0 .832.157.89.18 0 .324-.053 1.04-.053 1.23 0 .122-.067.162-.125.162-.063 0-.09 0-.117-.056-.107-.056-.358-.118-.706-.118-.917 0-1.772.66-1.772 2.606m15.616 3.685v-4.882c0-.933-.425-1.498-1.217-1.498-1.056 0-1.753 1.124-1.753 2.633v3.747H98.49v-5.553c0-.609-.058-1.503-.085-2.001h1.378c.156 0 .2.061.2.2v.946h.055c.205-.358.733-1.308 2.317-1.308 1.623 0 2.536 1.112 2.536 2.365v5.35h-1.713Zm4.75-4.558h3.176c.067-1.218-.577-1.9-1.539-1.9-1.011 0-1.592.732-1.637 1.9Zm4.231 2.897c.094 0 .126.084.13.168.054.324.063 1.05.054 1.235-.184.062-1.105.403-2.34.403-2.411 0-3.855-1.247-3.855-3.925 0-2.298 1.23-3.936 3.448-3.936 2.179 0 3.216 1.459 3.216 3.265 0 .212 0 .57-.058 1.051h-4.848c0 1.286.827 2.214 2.343 2.214.837 0 1.503-.302 1.767-.43.054 0 .081-.056.143-.056m4.022 1.806c2.232 0 3.296-.917 3.296-2.27 0-1.337-.948-1.901-1.954-2.231-.287-.095-.573-.19-.832-.28-.689-.224-1.047-.526-1.047-.973 0-.47.429-.8 1.324-.8.796 0 1.445.325 1.7.448.058 0 .076.056.143.056.058 0 .125-.056.138-.162 0-.258.054-.716.054-1.158-.21-.095-.962-.48-2.169-.48-1.843 0-2.979.961-2.979 2.225 0 1.23.841 1.79 1.767 2.096.21.073.603.202.836.28.962.319 1.235.61 1.235 1.062 0 .588-.627.878-1.705.878-.881 0-1.489-.324-1.731-.441-.058 0-.08-.056-.152-.056-.121 0-.13.167-.13.195 0 .084-.053.867-.053 1.124.201.09 1.078.487 2.25.487m-101.09-8.259h-.054l-1.61 4.535h3.242l-1.579-4.535Zm2.876 8.113-.788-2.23h-4.204l-.783 2.23h-1.798l3.766-9.924h1.995l3.708 9.924h-1.896ZM45.98 15.734h1.753v1.66h-1.753v-1.66Zm0 2.762H47.7v7.598H45.98v-7.598ZM42.3 22.371v3.684h-1.713v-5.613c0-.543-.063-1.572-.085-1.946h1.382c.147 0 .197.067.197.213v.939h.053c.135-.33.622-1.308 2.044-1.308.48 0 .837.156.89.178 0 .325-.053 1.04-.053 1.23 0 .123-.067.162-.13.162-.062 0-.09 0-.116-.055-.112-.056-.358-.123-.707-.123-.912 0-1.771.665-1.771 2.61m-12.672 3.685v-4.836c0-.872-.363-1.543-1.253-1.543-.997 0-1.579 1.09-1.579 2.628v3.751h-1.713v-4.853c0-.788-.33-1.526-1.252-1.526-1.011 0-1.584 1.09-1.584 2.684v3.695h-1.713V20.52c0-.71-.063-1.71-.085-2.052h1.369c.156 0 .206.056.215.212v.94h.053c.108-.218.671-1.309 2.25-1.309a2.264 2.264 0 0 1 2.16 1.376 2.501 2.501 0 0 1 2.269-1.376c1.534 0 2.585.828 2.585 2.483v5.233h-1.722Zm4.75-4.556h3.176c.067-1.22-.573-1.901-1.539-1.901-1.01 0-1.588.732-1.637 1.9Zm4.232 2.896c.093 0 .12.084.13.168.053.324.057 1.05.053 1.235-.183.062-1.105.403-2.344.403-2.406 0-3.851-1.247-3.851-3.925 0-2.298 1.23-3.937 3.453-3.937 2.174 0 3.212 1.46 3.212 3.266 0 .212 0 .57-.063 1.045h-4.84c0 1.292.823 2.22 2.335 2.22.841 0 1.508-.302 1.776-.43.054 0 .076-.056.143-.056m21.51-2.176h-.29c-2.152 0-2.576.75-2.576 1.51 0 .621.407 1.214 1.212 1.214 1.073 0 1.655-1.035 1.655-2.12v-.604Zm.417 3.836c-.139 0-.255-.056-.273-.246 0-.246-.054-.727-.054-.727-.103.14-.729 1.119-2.299 1.119-1.503 0-2.366-1.163-2.366-2.432 0-1.767 1.713-2.65 4.258-2.65h.336v-.28c0-.789-.568-1.214-1.615-1.214-.948 0-1.736.33-2.04.487 0 0-.076.056-.125.056-.085 0-.13-.056-.134-.14 0-.285-.058-.833-.058-1.18.313-.117 1.337-.498 2.464-.498 2.25 0 3.212 1.04 3.212 2.706v2.947c0 1.074.098 1.778.139 2.063l-1.445-.01Zm-5.927-1.66c.054 0 .112 0 .12.162.054.357.054.95.054 1.135-.34.168-1.082.509-1.995.509-2.285 0-3.69-1.331-3.69-3.931 0-2.432 1.248-3.93 3.69-3.93.815 0 1.562.285 1.995.508 0 .268-.053.878-.053 1.135 0 .106-.058.157-.12.157-.073 0-.095 0-.14-.056-.545-.269-1.064-.403-1.534-.403-1.454 0-2.057.956-2.057 2.567 0 1.436.478 2.56 2.057 2.56.604 0 1.15-.212 1.49-.374.098-.056.107-.062.183-.062m13.406 1.66v-4.88c0-.934-.425-1.499-1.217-1.499-1.06 0-1.762 1.119-1.762 2.634v3.746h-1.713v-5.552c0-.61-.054-1.505-.081-2.008h1.373c.157 0 .201.067.201.207v.945h.059c.205-.358.738-1.308 2.312-1.308 1.633 0 2.545 1.113 2.545 2.365v5.35h-1.717Zm75.424 3.25.21.732.206-.733h.174l.134.918h-.134l-.103-.75-.21.75h-.152l-.206-.744-.094.744h-.129l.134-.918h.17Zm-.43 0v.117h-.272v.8h-.135v-.8h-.268v-.117h.675ZM120.949 9.84l4.245 6.95c.608.922 1.1 1.185 2.666 1.185h3.824c-3.534-4.411-5.206-6.67-5.752-7.173-.488-.476-.975-.962-2.165-.962h-2.818Zm11.782 8.499c-1.745 0-3.44.173-4.285.575-.72.386-.913.626-.913 1.068 0 .403.076.744.327 1.141l2.098 3.466s-.148-.408-.148-.872c0-2.197 2.393-3.645 5.385-3.645.94 0 1.342.162 1.342.162-.29-.984-.97-1.895-3.806-1.895Zm1.109 2.303c-.859.162-1.619.475-2.187.928-.863.677-1.342 1.633-1.248 2.986 0 .134.062.514.13.822.053.123.053.128.053.223l1.7 2.83c.72 1.157 1.91 1.688 3.4 1.688h5.993l-7.022-8.515-.819-.962Z"/></svg>