<svg xmlns="http://www.w3.org/2000/svg" width="156" height="28" fill="none"><g fill="#909090" clip-path="url(#a)"><path d="M17.409 22.964c.358 0 .699-.085 1.023-.273l3.736-2.15a4.077 4.077 0 0 1 2.49-.51c4.538.528 7.71 1.38 8.649 1.654a.517.517 0 0 0 .529-.17c.153-.188.34-.495.494-.939.137-.427.154-.785.137-1.04a.492.492 0 0 0-.359-.444c-1.467-.427-7.966-2.183-16.7-2.183-8.733 0-15.232 1.757-16.7 2.183a.492.492 0 0 0-.357.444c-.017.238 0 .596.136 1.04.137.444.341.75.495.938.12.154.341.222.529.17.938-.272 4.128-1.125 8.648-1.654.87-.102 1.74.085 2.49.512l3.736 2.15c.324.187.682.272 1.024.272ZM11.183 10.87a1.477 1.477 0 0 0 2.03.546 1.477 1.477 0 0 0 .545-2.03l-3.36-5.817c-.102-.187-.324-.256-.529-.239-.273.017-.648.154-1.092.41-.443.256-.75.511-.904.733a.55.55 0 0 0-.051.58l3.36 5.817Zm-3.07 4.162a1.55 1.55 0 0 0 1.125.154c.375-.103.7-.341.904-.7a1.55 1.55 0 0 0 .154-1.126 1.463 1.463 0 0 0-.7-.904L3.78 9.096a.55.55 0 0 0-.58.051c-.221.154-.477.46-.733.904s-.392.819-.41 1.092c-.017.222.069.426.24.529l5.816 3.36Zm10.78-6.226c0 .41-.17.785-.427 1.058a1.453 1.453 0 0 1-1.057.426c-.41 0-.785-.17-1.058-.426a1.453 1.453 0 0 1-.426-1.058V2.102c0-.222.136-.392.34-.477.24-.12.632-.188 1.144-.188.512 0 .904.068 1.143.188.187.102.34.255.34.477v6.704Zm4.742 2.064a1.477 1.477 0 0 1-2.03.546 1.477 1.477 0 0 1-.546-2.03l3.36-5.817c.103-.187.325-.256.53-.239.272.017.647.154 1.091.41.444.256.75.511.904.733a.55.55 0 0 1 .051.58l-3.36 5.817Zm3.07 4.162a1.55 1.55 0 0 1-1.125.154 1.477 1.477 0 0 1-.905-.7 1.55 1.55 0 0 1-.153-1.126c.102-.375.341-.699.7-.904l5.816-3.36a.55.55 0 0 1 .58.051c.222.154.478.46.733.904.256.444.393.819.41 1.092.017.222-.068.426-.239.529l-5.817 3.36ZM63.806 10.41h2.798c.102 0 .188.068.239.153l2.78 7.13 2.695-7.13c.035-.102.137-.154.24-.154h2.746c.187 0 .307.188.221.342L68.702 26.41a.263.263 0 0 1-.222.153h-2.422c-.17 0-.307-.187-.222-.34l2.337-5.476-4.571-9.996c-.103-.154.017-.341.204-.341Zm41.298 1.586v-1.33c0-.137.119-.257.256-.257h2.473c.137 0 .256.12.256.256v10.627a.262.262 0 0 1-.256.256h-2.473a.262.262 0 0 1-.256-.256v-1.398c-.529.818-1.689 1.893-3.582 1.893-3.617 0-5.493-2.763-5.493-5.85 0-4.026 2.797-5.75 5.407-5.75 1.723-.016 2.917.802 3.668 1.809Zm-6.09 3.957c0 1.91 1.177 3.378 3.071 3.378 1.893 0 3.104-1.28 3.104-3.241 0-1.962-1.177-3.463-3.19-3.463-1.893 0-2.985 1.467-2.985 3.326Zm11.31 5.34V10.665c0-.136.119-.256.255-.256h2.474c.136 0 .256.12.256.256v1.45c.58-1.006 1.671-1.927 3.531-1.927 1.91 0 4.042.938 4.042 5.253v5.851a.262.262 0 0 1-.255.256h-2.474a.263.263 0 0 1-.256-.256v-5.8c0-1.04-.255-2.831-2.098-2.831-1.842 0-2.49 1.62-2.49 3.122v5.51c0 .136-.12.255-.256.255h-2.474c-.153-.017-.255-.12-.255-.256Zm12.674 0V10.665c0-.136.119-.256.256-.256h2.473c.136 0 .256.12.256.256v1.45c.58-1.006 1.672-1.927 3.531-1.927 1.91 0 4.043.938 4.043 5.253v5.851c0 .137-.12.256-.256.256h-2.474a.263.263 0 0 1-.256-.256v-5.8c0-1.04-.255-2.831-2.098-2.831-1.842 0-2.49 1.62-2.49 3.122v5.51c0 .136-.12.255-.256.255h-2.474c-.136-.017-.255-.12-.255-.255Zm25.979-10.883h2.405c.137 0 .256.119.256.255v2.2c.478-2.183 2.354-2.933 3.719-2.609.119.017.187.12.187.239v2.422c0 .153-.136.273-.307.239-2.524-.495-3.548.87-3.548 2.78v5.357a.262.262 0 0 1-.256.255h-2.473a.262.262 0 0 1-.256-.255V10.665c.017-.136.137-.255.273-.255ZM47.414 12.832c-.768-.256-1.177-.41-1.791-.614-.631-.222-1.706-.836-1.706-1.826 0-.989.682-1.62 2.064-1.62 1.262 0 1.962.614 2.422 1.603a.26.26 0 0 0 .358.12l2.03-1.177c.103-.068.154-.205.103-.324-.614-1.348-2.047-2.968-4.879-2.968-3.156 0-5.135 1.876-5.135 4.35 0 2.456 1.621 3.735 3.822 4.486.801.272 1.125.392 1.808.614 1.296.443 1.893 1.023 1.893 1.825s-.512 1.757-2.524 1.757c-1.843 0-2.491-.972-2.866-1.894a.245.245 0 0 0-.358-.119l-2.133 1.228c-.102.069-.153.188-.102.307.819 2.013 3.053 3.207 5.56 3.207 2.952 0 5.442-1.5 5.442-4.537s-3.24-4.162-4.008-4.418Zm16.29 5.8c-.068-.12-.239-.171-.358-.086-.955.7-2.081.717-2.934-.597a571.182 571.182 0 0 1-1.586-2.473l3.752-4.657a.249.249 0 0 0-.187-.41h-2.934a.243.243 0 0 0-.205.103l-3.241 4.452V6.009a.262.262 0 0 0-.256-.256h-2.473a.262.262 0 0 0-.256.256v15.284c0 .136.12.255.256.255h2.49c.137 0 .256-.12.256-.255v-4.965s1.655 2.61 2.286 3.583c.853 1.33 2.047 1.876 3.343 1.876 1.228 0 2.013-.324 2.951-1.245a.26.26 0 0 0 .051-.307l-.955-1.604Zm17.757-3.515-1.654-.614c-.597-.221-1.126-.546-1.126-1.023 0-.478.444-1.007 1.348-1.007.784 0 1.262.307 1.535.853a.24.24 0 0 0 .34.103l1.74-1.007a.248.248 0 0 0 .086-.34c-.477-.837-1.416-1.894-3.684-1.894-2.78 0-4.214 1.603-4.214 3.377 0 1.774 1.45 2.61 2.78 3.139 1.502.614 1.604.648 1.792.716.46.188 1.023.478 1.023 1.007 0 .529-.614 1.006-1.552 1.006-.87 0-1.86-.358-2.269-1.364a.245.245 0 0 0-.358-.12l-1.757 1.007c-.102.068-.153.187-.102.307.512 1.33 2.03 2.507 4.486 2.507 2.661 0 4.435-1.416 4.435-3.412 0-1.995-1.365-2.695-2.849-3.24Zm9.996-2.285c1.11 0 1.928.34 2.696.887.12.085.29.05.358-.069l1.023-1.774a.229.229 0 0 0-.085-.324c-1.058-.716-2.371-1.381-4.145-1.381-1.757 0-3.378.477-4.538 1.654-1.16 1.16-1.688 2.542-1.688 4.18 0 1.978.819 3.24 1.706 4.128.887.887 2.49 1.637 4.537 1.637 1.842 0 3.207-.767 4.145-1.382a.243.243 0 0 0 .068-.324l-1.006-1.757c-.068-.12-.239-.17-.358-.085-.666.478-1.62.887-2.695.887-1.212 0-3.412-.682-3.412-3.139 0-2.456 2.183-3.138 3.394-3.138Zm50.185 6.482c-.989 0-1.927-.239-2.61-.785-.682-.546-1.006-1.109-1.006-1.774h8.836c.136 0 .256-.12.256-.256-.051-2.627-.904-3.855-1.723-4.69-.853-.854-2.303-1.638-4.214-1.638-1.91 0-3.377.7-4.383 1.689-.99.989-1.74 2.251-1.74 4.162 0 1.91.767 3.172 1.706 4.11.938.939 2.473 1.638 4.673 1.638 2.081 0 3.838-.733 5.101-2.183.102-.12.068-.307-.068-.375l-1.757-1.024a.235.235 0 0 0-.29.034c-.87.819-1.979 1.092-2.781 1.092Zm-.478-6.755c1.416 0 2.713.853 2.917 2.388h-5.953c.392-1.655 1.621-2.388 3.036-2.388Z"/></g><defs><clipPath id="a"><path fill="#fff" d="M.333 0h155.211v28H.334z"/></clipPath></defs></svg>